<?xml version="1.0" encoding="utf-8"?>
<!-- Generator: Adobe Illustrator 24.0.0, SVG Export Plug-In . SVG Version: 6.00 Build 0)  -->
<svg version="1.1" id="Layer_1" xmlns="http://www.w3.org/2000/svg" xmlns:xlink="http://www.w3.org/1999/xlink" x="0px" y="0px"
	 viewBox="0 0 1190.2 1683.8" style="enable-background:new 0 0 1190.2 1683.8;" xml:space="preserve">
<style type="text/css">
	.st0{clip-path:url(#SVGID_2_);}
	.st1{fill:#FFFFFF;}
	.st2{fill:#111827;}
	.st3{clip-path:url(#SVGID_4_);}
	.st4{fill:none;stroke:#48BB78;stroke-width:3.7495;stroke-linecap:round;stroke-miterlimit:14.9979;}
	.st5{fill-rule:evenodd;clip-rule:evenodd;fill:#FFFFFF;}
	.st6{clip-path:url(#SVGID_6_);}
	.st7{fill-rule:evenodd;clip-rule:evenodd;}
	.st8{clip-path:url(#SVGID_8_);}
	.st9{filter:url(#Adobe_OpacityMaskFilter);}
	.st10{clip-path:url(#SVGID_10_);mask:url(#mask0_1_);}
</style>
<g id="surface1">
	<g>
		<defs>
			<rect id="SVGID_1_" y="0.4" width="1189.5" height="1682.7"/>
		</defs>
		<clipPath id="SVGID_2_">
			<use xlink:href="#SVGID_1_"  style="overflow:visible;"/>
		</clipPath>
		<g class="st0">
			<path class="st1" d="M0,0.4h1192.2v1693.9H0V0.4z"/>
			<path class="st1" d="M0,0.4h1190v1683.4H0V0.4z"/>
			<path class="st2" d="M0,0.4h1190v1683.4H0V0.4z"/>
		</g>
	</g>
	<g>
		<defs>
			<rect id="SVGID_3_" x="238" y="1050" width="951.5" height="5"/>
		</defs>
		<clipPath id="SVGID_4_">
			<use xlink:href="#SVGID_3_"  style="overflow:visible;"/>
		</clipPath>
		<g class="st3">
			<path class="st4" d="M239.9,1052.2h948.6"/>
		</g>
	</g>
	<path class="st4" d="M120.9,619.5h948.6"/>
	<path class="st5" d="M503.1,1041.1c1.1-5-3.9-6.7-7-7.8c-2.3-1.4-10.5-6.4-16.9-12.6c-5.2-5-8.8-11.5-10.3-12.1
		c-1-0.6-1.6-1.1-1.7-1.5c-0.9-3.9-0.1-7.4,0-9.7c3-0.8,5.4-1.7,7.2-3.1c0.5,0.2,1.3,0.4,1.6-0.4c1.6-10.7,2.3-21.3,3.6-32
		c5-40.8,5.6-88.5-3-125.8c-0.1-1.9,0.1-3.5,0.3-5.1c1.2-0.1,1.9-1.2,2.8-1.9c1.5-1.2,3.2-2.1,3.1-4.1c0.3-0.3,0.3-0.4,0.1-0.8
		c1.1-4.8-3.9-9.8-5.3-13.7c2.6-25-0.9-48.5,1-73.4c2.5-1,0.8-7.4,0.6-10.1c-1.4-17-10.2-33.8-26.2-39.3c-0.9-0.2-2.3-1.2-3-0.5
		c-1.5-0.6-3.4,0.6-4.5-0.8c-1-1.3-1.4-3-1.7-4.6c0.1,0.4,0.1,0.9,0.3,1.3c-2.8-7.7-3.4-9.8-12.4-10.2c-4-0.1-9.3,0.1-11.6,3.9
		c-1,1.7-0.6,3.8-1.2,5.7c-1.1,3.4-5.8,1.7-8.3,3.5c-19.8,6.3-36,19.2-41.3,39.8c-1.1,2.5-2.3,5-3.2,7.5c-0.1,0.4-0.5,1.7,0.4,2.3
		l0.5,0.3c-6,27.5-6.3,50.7,13.6,69.1c1.5,7.9-2.3,18.6-0.8,26.3c-0.8,1.2,0.2,2.1,1.3,2.2c0.1,0.1,0.5,0.3,0.6,0.3
		c-1.7,24.1,5.5,56.4,8.7,69.2c0.5,7.7-2.2,14-7.6,18.2c-6,3.7-17.9,20.2-15.7,37.6c-2.6,0.5-5.1,0.8-7.6,1.7
		c-10.7-1.9-10.7,18.8-11.3,26c-1.2,12.1-1.9,29.8,9.7,37.5c3,2.2,9.3,4.8,12.4,1.3c1-1.2,1.3-2.4,0.9-3.7c5.2-7.4,3.8-17,4.3-25.7
		c1.6-0.1,3.1,0.6,4.6,0.4c1.5-1.4-4-1-4.6-1c0.1-1.4,0.2-2.7,0.3-4.1c0.8,0.2,1.9,0.6,2.8,0.6c0.5,0.1,0.8-0.6,0.5-0.9
		c-0.6-0.6-2.3-0.5-3.2-0.6c0.1-1.1,0.3-2.3,0.6-3.4c1.2-0.1,2.3,0.7,3.4,0.5c-0.8-0.5-2.3-0.4-3.4-0.7c0.6-3.5,1.9-6.8,3.2-10.1
		c3,1.2,5.6,1.3,8.5,0.9c1.2,0.2,1.8-0.1,2-1.5l-0.1-0.1c2.3-13.9,9.8-27,23.8-42c2.8-3.1,5.9-6.7,8-10.7c4.1-8.4,4.9-17.7,8.1-26.4
		c3-8.8,7.1-17.2,10.9-25.5c0.6,4.3,1.3,8.6,2.1,12.8c3.5,14.8,3.1,30.6,0.6,45.5c-3.8,20.8-1.9,41.8-2.8,62.8c0,1.2,0.2,2.3,0,3.5
		c0,0.1,0,0.2,0.1,0.2h0.2c1.8,1.4,4.3,1.5,6.5,2.3c0.9,0.7,0.6,1.8,0.7,2.7c0.3,3.7,0.5,7.5,0.2,11.4c-1.6,3.2-3.7,2.5-4.1,6.9
		c-0.4,5-1,10.4,1.5,14.9l-0.9,0.1c-1.4,2.9-0.5,4.8,2.7,6c16.1,6.3,38.8,12,55.6,7.2c0.3,0.3,0.8,0,1.1-0.5c0.3-0.5,0.6-1,0.5-1.4
		C504.5,1044.2,504.8,1041.4,503.1,1041.1z"/>
	<g>
		<defs>
			<rect id="SVGID_5_" x="346" y="676" width="159.6" height="374"/>
		</defs>
		<clipPath id="SVGID_6_">
			<use xlink:href="#SVGID_5_"  style="overflow:visible;"/>
		</clipPath>
		<g class="st6">
			<path class="st7" d="M503.8,1046.1c-14.5,6.4-40.8-1.7-55-6.4c-3.8-1.4-5.1-1.7-4-6.1c2,3.9,6.3,4.8,10.5,5.5
				c14,3.2,28.4,9,43.4,6.2c2.2-0.3,4.4-1.6,5.1-3.7c0.4,0.9,0.1,2.2,0.3,3.2C503.9,1045.3,503.9,1045.8,503.8,1046.1 M445.2,1022.1
				c0.3-2.6,0.6-5.4,2.1-7.6c-0.1,3.7,2.1,10,7,7.9c1.4-0.7,2.1-2.2,3-3.4c3-3.9,6.8-7.3,11.1-9.7c2.4,0.4,3.4,4.8,5,6.6
				c-1.7,0.8-4.9,2.5-5.2,4.3c2.1-0.7,4.1-2.1,6.3-2.5c0.7,1,1.5,1.9,2.3,2.9c-1,0.5-5.3,2.6-5.2,3.7c2.3-0.4,4.5-1.5,6.8-1.9
				c1,1,1.9,2.1,3,3.1c-1.6,0.6-3.2,1.4-4,2.8c-0.1,0.1,0.1,0.1,0.1,0.1c1.2-1.4,3.1-1.6,4.9-1.9c2.7,2.4,5.6,4.6,8.9,6.3
				c3.3,1.8,8.4,2.2,9.6,6.1c1,3.9-2.2,4.3-5.2,4.6c-3,0.4-6.1,0.5-9.2,0.3c-9.5-0.4-18.5-3.2-27.4-5.6
				C448.1,1035.8,444.5,1034.2,445.2,1022.1 M449.1,999.4c5.8,0.8,11.8,0.3,17.5-1.1c-0.4,1.6-0.6,3.3-0.8,4.9
				c-0.1,0.5-0.2,1.2-0.2,1.9c0.1,1,0,2.1,0.6,2.9c-4.2,3.1-8.3,6.5-11.3,10.8c-1.9,3.5-4.5,1.4-5.2-1.4c-0.4-5-0.2-9.7-0.5-14.5
				C449.3,1001.7,449.2,1000.6,449.1,999.4 M448.5,999.3c0,0.2-0.1,0.3-0.1,0.5c0-0.2-0.1-0.4-0.1-0.5
				C448.3,999.3,448.4,999.3,448.5,999.3 M445.6,996.8c-1-0.3-1.9-0.6-2.9-0.9c-0.3-0.1-0.6-0.1-0.8-0.3c3.6-7.4,1.5-16.1,1.7-24
				c-1.2-21.7,3.8-42.9,4.5-64.5c-0.1-12.2-4.3-23.9-6.5-35.8c2.2-4.7,4.3-9.5,6.3-14.2c0.1-0.1-0.2-0.3-0.3-0.1
				c-2.3,3.6-4.7,7.2-6.9,10.9c-10.6,15.7-15.3,33.6-20.4,51.5c-1.6,4.1-4.2,7.7-7.1,11c-12,12.9-23.2,27.7-26.1,45.1
				c-11.1-0.4-14.4-7.2-18.3-15.8v-0.1c-0.1-0.3-0.3-0.5-0.3-0.8c-0.1,0-0.1,0.1-0.1,0.1c-2.6-5,1.1-15.3,3-20.4
				c2.6-5.7,6.1-11.1,10.7-15.5c3.4-3,6.9-6.3,8.4-10.5c2.4-6.7,0.3-14.2-1.1-20.9c-3.3-16.7-6.5-42.3-6-59.3
				c4.2-5,11.5-4.4,17.4-5.6c1.7,1.6,3.2,3.5,5.3,4.5c2.5,2.3,4.9,4.7,6.7,7.5c2,3.9,4.6,7.2,8.2,9.8c1.8,1.4,4.5,3.5,7,2.6
				c1.8-0.6,2.8-2.4,4.6-3c2.1-0.4,3.4-0.6,4.7-2.5c1.6-0.3,3-1,2.5-2.8c0.4,0.1,0.8,0.3,1.2,0.4c0.8,0.3,1.7-0.6,1.4-1.4
				c-0.6-1.5-1.4-3-1.7-4.7c-0.3-7.4-2.2-9.5-9.1-12.4c2.7-0.1,5.4,0.5,8,1.3c13,4.7,21.5,7.6,35.1,1.7
				c6.6,54.5,6.5,110.1-1.6,164.4C465.5,997.7,454.7,997.6,445.6,996.8 M367.6,965.4c0-0.2,0.1-0.5,0.1-0.6
				c1.6,4.4,4.4,8.6,8.5,11.1c-1.6,2-4.7,2.6-6.8,1C365.8,974,367.3,969.1,367.6,965.4 M374.5,985.9c-1.6-0.1-8.5-0.4-9.4,0.7
				c0.9,0.4,2.2,0.2,3.2,0.2c1.9,0.1,3.9,0.3,5.8,0.5c-0.1,0.8-0.3,1.5-0.4,2.3c-1.9,0.2-5.8,0.3-7,1.6c2.2,0.3,4.5,0.1,6.7,0.5
				c-0.1,1-0.2,2.1-0.3,3.1c-0.9,0.1-6.1,1-6.1,1.7c1.9,0.3,4-0.1,6,0.1c-0.5,6.2,1,24.8-7.4,25.9c-7.4-0.4-10.7-12.3-11.6-18.1
				c-2.2-13.3-1.9-27.6,2.6-40.4c1.6-3.5,5.9-4.2,9.5-4.4c0.1,0.6,0.3,1.2,0.5,1.8c-1.6,3.5-2.1,7.5-2.1,11.4
				c0.3,5.5,7.2,9.7,12.2,6C375.7,981.1,375,983.5,374.5,985.9 M364.6,1025.6c-14.7-3.2-17.1-20.1-16.1-32.4
				c0.8-8.6-0.2-26.9,7.8-32c-10.4,9.4-9.5,73.5,13.5,62.4C369.4,1025.3,366.5,1025.9,364.6,1025.6 M381.2,834.2
				c0.1,0,0.2-0.1,0.3-0.1c0,2.1,0,4.3,0.1,6.4C381.4,838.4,381.3,836.3,381.2,834.2 M380,801.7c-19.5-19.4-15.8-41.4-11.3-65.6
				c7.2,0.8,14.6,2.6,21.1,5.8c-2.3,10.7-2.5,20.4-3.4,31.3c-0.3,1.4,0.1,3.9,1.9,3.4c17.6,13.9,19.6,42.4,42.7,50.6
				c9.4,3.8,5.4,6.9,8.5,14.1c-1.7-0.3-3.2-1.7-3.9-3.1c-0.4-0.6-1.4-0.1-1.1,0.6c0.8,1.5,2.1,2.6,3.6,3.4c-0.2,0.4-0.3,0.8-0.3,1.2
				c-2.7,0.6-1.9,1.9-3.8,2.4c-1.2,0.3-2.4,0.5-3.4,1.2c-3.6,3.3-4.5,3-8.3,0.1c0.1-0.3-5.2-5.4-6.8-8.1c-1.4-2.4-2.8-4.7-4.8-6.6
				C400.6,822,389.8,812.3,380,801.7 M476.2,737.2c-1,13.7-0.7,26-0.5,39.7c0.1,9.2,0.2,18.5-0.1,27.7c-8.2-21-5.7-43.8-6.9-66
				C471.1,737.9,473.7,737.6,476.2,737.2 M417.6,684.5c0,0.1-0.1,0.1-0.1,0.1c-0.2,0-0.4,0-0.6,0.1
				C417.1,684.6,417.3,684.6,417.6,684.5 M445.4,686.1L445.4,686.1C445.4,686,445.5,686,445.4,686.1
				C445.5,686,445.5,686,445.4,686.1 M505.2,1043.5c-0.1-1.1-0.1-2.5-1.4-2.9c0.6-4.7-3.4-7.4-7.5-8.7c-3.5-2.1-7.5-3.6-10.7-6.3
				c1.5-0.3,3-0.6,4.3-1.3c1-0.5,0.5-2.1-0.6-2c-1.9,0.3-3.7,1.2-5.5,1.9c-1-0.8-2-1.7-3-2.6c1.2-0.3,2.7-0.1,3.4-1.3
				c0.2-0.4,0.1-0.7-0.1-1c-1.2-1.2-3.6,0-5,0.3c-0.7-0.8-1.4-1.7-2.1-2.5c1.1-0.1,4,0.1,3.4-1.7c-1.1-1.4-3.4-0.6-5.1-0.3
				c-2-2.4-2.7-6.2-5.8-7.5c-0.1-0.6-0.9-0.6-1.4-0.4c-0.3-1.5-0.5-2.8-0.6-4h-0.1c-0.1-1.7,0.1-3.5,0.1-5.2
				c2.3-0.6,4.7-1.5,6.5-2.8c0.9,0.3,1.9-0.1,2.1-1.1c1.6-10.6,2.3-21.4,3.6-32c4.8-39.3,5.8-87.2-3-126c-0.1-1.5,0.1-3,0.2-4.4
				c1-0.3,1.7-1.3,2.5-1.9c1.6-1.3,3.2-2.1,3.4-4.3c0.3-0.3,0.4-0.8,0.2-1.2c0.4-2.3-0.2-4.7-1.5-6.7c-1.4-2.3-2.7-4.6-3.8-7.1
				c2.5-24.5-0.9-48.2,1-72.9c2.4-1.3,0.9-8.2,0.6-10.6c-1.4-15.3-8.6-32.2-23.9-38.6c-1.1-0.9-2.6-1.2-3.9-1.7
				c-0.9-0.4-2.3-0.8-2.9,0.2c-0.6-0.3-2.7-0.5-3.4-1c-0.1-0.1-0.2-0.2-0.3-0.3c-0.1,0-0.1,0-0.2,0c-0.6-0.9-1.3-7.3-2.1-6.9
				c-0.9,2.2-0.3,4.7,0.6,6.9c0.6,1.9,1.4,7,4.5,5.7c0.5-0.3,0.2-1-0.3-1c-1.5-0.4-1.8-2.6-2.3-3.8c0.6,0.6,3.8,1.4,4.1,1.6
				c6.6,15.1-33.4,14.3-36.6,3.9c-2.3-3.6-0.3-5.5,3.7-6.1c-2.9,3.2,0.8,4,2.2,0.8c1.4-2.3,1.9-5,1.5-7.7c0.3-0.9,0.5-2.1-1-1.9
				c-0.1-0.1-0.1,0-0.1,0.1c-0.5,0.8-0.1,1.9-0.3,2.9c-0.1,1.5-0.6,3-1.3,4.3c-1.4,0.3-2.7,0.5-4.1,0.8c-0.8-1.6-6.1,1.6-7.4,2
				c-18.6,5.5-32.9,20.1-37.8,38.6c-1.1,2.4-2.3,4.9-3.2,7.5c-0.4,1.1-0.4,2.4,0.7,3.2c-5.4,24.8-6.7,50.6,13.8,69.1
				c0.5,2,0.1,4.1,0.1,6.2c0.2,4.6-3.8,20.6,0.8,22.7c-1.4,20.7,3.8,48.9,8.7,68.9c0.4,6.8-1.7,13.1-7.3,17.5
				c-10.7,7.9-15.1,21.1-16.4,33.7c-0.2,1.3,0,2.6,0.3,3.9c-2.3,0.4-4.5,0.7-6.7,1.5c-12.4-2.4-11.5,24.1-12.4,31.9
				c-0.7,11.6-0.3,25.5,10.4,33.1c3.6,2.6,10,5,13.5,1.2c1-1.2,1.6-2.6,1.2-4.1c5.1-7.4,3.8-16.7,4.2-25c1.3,0.1,2.8,0.6,4.1,0.3
				c1-0.3,1.1-1.5,0.3-2.1c-1.2-0.7-2.8-0.5-4.3-0.5c0.1-0.8,0.1-1.6,0.2-2.4c1.3,0.3,3.2,1.1,3.6-0.7c0.1-1.6-1.9-1.7-3.2-1.8
				c0.1-0.6,0.2-1.2,0.3-1.9c1,0.1,2.1,0.7,3,0.4c0.6-0.2,0.8-0.8,0.3-1.2c-0.8-0.7-2-0.6-3-0.8c0.6-3,1.7-5.7,2.7-8.6
				c1.9,0.6,3.9,1.1,6,0.9c1-0.2,2.2-0.3,3.2-0.1c1.2-0.3,1.5-1.5,1.6-2.6c0-0.1-0.1-0.1-0.1-0.1c2.7-15.9,12.6-29.5,23.6-41.3
				c3-3.4,6-6.9,8.1-10.9c4.2-8.4,4.9-17.8,8.2-26.5c2.7-7.9,6.3-15.5,9.8-23c1.4,10,4.1,19.8,4.3,29.9c0.5,12.8-2.4,25.4-3.6,38.2
				c-2.2,16.7-0.2,33.5-1.2,50.3c0,1.2,0.1,2.3,0,3.5c-0.1,0.6,0.4,1.1,0.9,1.1c1.8,1.2,4.1,1.6,6.2,2.1c0.6,0.4,0.3,1.5,0.5,2.2
				c0.1,0.6,0.1,1.4,0.1,2c0.2,2.8,0.3,5.3,0,8.4c-2.1,3-3.6,2.5-4.1,7.2c-0.3,4.8-1,10,1.1,14.3c-1,0.2-1.3,3.1-1.2,3.8
				c0.3,2.1,2.1,2.8,3.9,3.5c13.4,5,41.8,13.2,55.6,7.5c1,0.6,2.1-0.5,2.4-1.4C505.7,1045.5,505.3,1044.5,505.2,1043.5"/>
		</g>
	</g>
	<path class="st5" d="M460.2,651c-1-12.8-4.3-24.1-19.4-24.6c-6.8,0.1-13.8,1.5-20,4.2c-15.3,7.5-20.1,35.3-6.7,46.5
		c-0.1,0.1-0.1,0.2,0,0.3c2.8,1.9,5.8,3.4,8.9,4.6c8.2,3.5,17.9,5,26.3,1.2C462.2,677.7,462.4,662.7,460.2,651z"/>
	<g>
		<defs>
			<rect id="SVGID_7_" x="374" y="590.5" width="114" height="99.5"/>
		</defs>
		<clipPath id="SVGID_8_">
			<use xlink:href="#SVGID_7_"  style="overflow:visible;"/>
		</clipPath>
		<g class="st8">
			<path class="st7" d="M485.4,645c0.5-0.5,0.9-1.1,1.1-1.8c0.2-0.6,0.2-1.3,0-1.9c-0.2-0.6-0.6-1.2-0.6-1.9c0-0.1,0-0.1,0.1-0.2
				c0.4-1.4,1.4-2.3,1-3.7c-0.1-0.4-0.3-0.8-0.5-1.1c0-0.3,0.1-0.6,0.1-1c0.6-1.3,0.5-2.8-0.1-4.1c-0.1-0.6-0.2-1.3-0.3-1.9
				c0.1-0.6,0-1.2-0.2-1.7c-0.3-0.8-0.7-1.7-1.2-2.6c0.1-0.3,0-0.5-0.1-0.7c-0.3-0.4-0.5-0.7-0.8-1.1c-0.2-0.4-0.5-0.8-0.6-1.2
				c-0.1-0.2-0.2-0.4-0.3-0.6c0.3-0.6,0.5-1.2,0.1-2c-0.1-0.3-0.5-0.4-0.8-0.4c-0.3,0-0.6,0.1-1,0.1c-0.6-0.8-1.4-1.4-2.1-1.8
				c-0.8-0.6-1.6-1.3-2.3-1.9c-0.2-0.2-0.5-0.4-0.6-0.6c-0.1-0.6-0.3-1.2-0.5-1.7c-0.1-0.4-0.1-0.7-0.5-0.9
				c-0.7-0.4-1.9-0.4-2.7-0.5c-0.1-0.1-0.2-0.1-0.3-0.2c0.4-1,0.3-2.1-0.2-3.1c-0.2-0.3-0.7-0.5-1-0.3c-0.7,0.5-1.6,0.7-2.4,0.6
				c-1.2-1-6.2-5.2-7-5.7V601c-0.5-0.7-1-1.2-1.6-1.7c-0.1-0.1-0.2-0.2-0.3-0.3c0.1-0.5,0.3-1,0.6-1.5c0.1-0.1,0.1-0.1,0.1-0.1
				c0.6-0.6-0.1-1.5-0.9-1.2c-0.1,0-0.1,0.1-0.2,0.1c-0.6,0.3-1.2,0.5-1.9,0.8c-0.3-0.1-0.5-0.2-0.7-0.3l-2.5-1
				c-0.4-0.2-0.8-0.3-1.2-0.5c-0.1-0.9-1-1.5-2-1.5c0.1-0.2,0.1-0.3,0.3-0.5c0.1-0.1,0.1-0.1,0.1-0.1c0.5-0.6-0.2-1.6-0.8-1.1
				c-0.1,0.1-0.1,0.1-0.1,0.1c-0.2,0.1-0.4,0.3-0.6,0.4c-0.3-0.1-0.7-0.2-1,0c-0.8,0.3-1.6,0.6-2.3,1.2l-0.1,0.1
				c-0.4-0.5-1-0.7-1.5-0.7c-0.4-0.6-1.1-1-1.8-0.8c0.1-0.8-0.8-1.6-1.6-1.7c-0.9-0.1-1.8,0.4-2,1.3c-0.1,0.3-0.1,0.5-0.3,0.8
				c-0.7-0.4-1.5-0.6-2.3-0.8c-1.8-0.3-3.6,0-5.2,0.5c-0.2,0.1-0.3,0.1-0.5,0.1c-0.3-0.3-0.5-0.6-0.7-0.8c-0.4-0.4-1.3-0.1-1.2,0.5
				c0.1,0.4-0.1,0.7-0.4,0.9c-0.3,0.1-0.6,0.1-1,0.1c-0.6,0-0.8,0-1.4-0.3c-0.3-0.1-0.6-0.4-0.8-0.6c-0.6-1-2.2-1.2-3-0.3
				c-0.8-0.3-1.8,0.1-2.3,0.8c-0.3,0.3-0.7,0.6-1.3,0.7c-0.5,0.1-0.9,0.2-1.4,0.3c-0.2-0.3-0.6-0.4-1-0.3c-0.2,0.1-0.5,0.3-0.6,0.5
				c-1.6,0.2-3.2,0.3-4.8-0.4c-1.3-0.5-2.5,0.9-2.3,2.1c-0.4,0.2-0.8,0.3-1.2,0.5c-0.8,0.4-1.5,1.2-1.9,2c-0.1,0.1-0.1,0.3-0.2,0.4
				c-0.3,0.3-0.6,0.5-0.9,0.8c-0.5-0.3-1-0.5-1.5-0.8c-0.4-0.2-1-0.1-1,0.5c-0.1,0.8-0.5,1.5-0.8,2c-1.4,0.7-2.6,1.5-3.8,2.3
				c-1.4,0.4-2.9,0.7-4.1,1c-0.5,0.1-0.7,0.6-0.5,1c0.3,0.4,0.5,0.8,0.8,1.2c-0.7,0.7-1.4,1.4-2,2.1c-1.7,2.1-3.2,4.3-4.5,6.6
				c-0.5,0.2-1,0.4-1.6,0.6c-0.5,0.2-0.7,0.8-0.3,1.2c0.2,0.2,0.4,0.4,0.5,0.6c-0.7,1.2-1.6,2.3-2.8,3c-0.4,0.2-0.6,0.6-0.8,1
				c-0.1,0.1-0.3,0.2-0.4,0.3c-0.3,0.3-0.5,0.8-0.1,1.2c0.3,0.3,0.5,0.5,0.8,0.8c0.1,0.2,0.1,0.3,0.1,0.5c-1.1,1-2,2.2-2.7,3.5
				c-0.2,0-0.3,0-0.5,0.1c-1.2,0.9-1.3,2.4-0.8,3.7c-0.3,1.9-0.1,3.9,0.5,5.9c-0.8,0.8-1.2,1.9-1.4,2.9c-0.3,1.9-0.3,4.7-0.5,6.6
				c-0.8,0.8-1.4,1.8-1.8,3c-0.3,0.1-0.6,0.3-0.8,0.4c-0.3,0.1-0.5,0.5-0.4,0.7c0.1,1.3,0.6,2.4,1.4,3.3c0.3,0.7,0.6,1.4,1.2,2.1
				c0.3,0.4,0.7,0.8,1,1.4c0,0.1,0.1,0.1,0.1,0.1c-0.1,0.1-0.2,0.3-0.3,0.4c-0.7,1.2-0.7,2.7,0.3,3.8c-0.4,0.3-0.4,0.9-0.1,1.3
				c2.2,2.4,4,5.5,7.1,6.8c0,0,0,0.1,0.1,0.1c-0.6,1.5-0.7,2.3-0.2,3.7c0,0,0,0,0,0.1c0.3,0.8,0.8,2.1,1.6,2.3
				c0.3,0.1,0.6,0.1,0.8,0.1c0.7,0.6,1.4,1.4,2.1,2c0.1,0.3,0.1,0.6,0.1,1c0,0.6,0.6,1,1.2,0.8c0.2-0.1,1.4-1.2,1.6-1.2
				c0.1,0.1,0.2,0.2,0.3,0.3c0.4,0.4,0.9,1,0.9,1.4c0.1,0.8,0.6,1.7,1.4,1.8c0.3,0.3,0.8,0.4,1.2,0l0.1-0.1c0.1,0,0.1,0,0.1,0
				c0.2,0.5,0.4,1.1,0.5,1.6c0.4,1,1.8,1.7,2.7,1.1c0.1,0.1,0.3,0.2,0.5,0.3c0.3,0.1,0.5,0.3,0.7,0.5c0,0.1,0,0.1,0.1,0.1
				c0.1,0.4,0.8,0.7,1.2,0.4c0.1,0.1,0.3,0.1,0.4,0.1c0.6,0.1,1.4,0.1,2-0.1c0.5-0.1,0.9-0.4,1.4-0.5h0.1c0.4,0.8,1.4,1.5,2.1,1.8
				c1,0.3,1.9,0.2,2.8-0.2c0.3,0.4,0.5,0.9,0.9,1.4c0.2,0.3,0.6,0.2,0.8,0c0.4-0.3,0.8-0.7,1.2-1c0.3-0.1,0.6-0.3,0.8-0.3
				c0.9-0.4,1.9-0.5,2.8-1.1c0.4-0.3,0.8-0.6,1.1-1c0.6-0.3,1.1-0.8,1.6-1.2c0.3,0,0.5-0.1,0.7-0.2c1-0.5,1.6-1.5,1.6-2.6
				c0.8-1.9,1.3-4,1.5-6.1c0.1-0.7,0.1-1.4,0-2.1c-0.1-0.5-0.1-0.8-0.3-1.3c-0.1-0.1-0.1-0.3-0.2-0.5c0-0.5,0-1,0-1.4
				c0.1-0.4,0.3-0.8,0.6-1.1c0.5-0.4,0.7-1.5,0.3-2.1c-0.3-0.4-0.6-0.8-0.8-1.2c0.1-1.7,0.5-4.3-0.4-4.5c0.1-0.3,0.1-0.5,0.1-0.7
				c0.2-1.2,0.1-2.2-0.5-3.2c-0.1-0.2-0.3-0.4-0.3-0.6c-0.1-0.3-0.1-0.6-0.2-1c-0.1-0.5-0.2-1-0.3-1.5c-0.1-0.6-0.1-1.4-0.1-2
				c-0.1-0.6-0.1-1.2-0.1-1.9c0-0.3,0.1-0.6,0.1-0.8c0.2-1.7,0.9-2.3,2.1-3.4c0.2,0,0.4-0.1,0.5-0.1c0.8-0.2,1.7-0.5,2.6-0.3
				s1.8,0.5,2.7,0c0.3-0.1,0.8-0.6,0.9-0.9v-0.1c0.1,0,0.1,0,0.2,0c0.7,0,1.4,0.3,2.1,0.2c0.8-0.1,1.6-0.4,2.1-1
				c0.6,0.1,1.3,0.3,2,0.1c0.6-0.1,1.1-0.3,1.6-0.5c0.4-0.2,0.3-0.3,0.6-0.1c0.9,0.4,1.7,0.8,2.7,0.6c0.5-0.1,1-0.4,1.4-0.8
				c0.1-0.1,0.3-0.2,0.3-0.3c0.5,0.3,1.7,0.8,1.9,0.8c0.6,0.1,1.2,0.1,1.8-0.1c0.4-0.1,0.9-0.5,1.2-0.6c0.5-0.1,1.5,0.5,2,0.8
				c1,0.4,2,0.5,3,0.1c0.3-0.1,1-0.7,1.2-0.6c0.4,0.5,1.6,3.2,1.9,4.3c1.4,4.1,1.7,16.6,1.1,19.9c0,0.1-0.1,0.2-0.1,0.3
				c-0.8,2.8-1.6,5.6-2.9,8.3c-1.2,2.4-3,4.6-5.4,6c-2.5,1.4-5.5,1.7-8.4,1.5c-1.8-0.1-3.6-0.5-5.4-1c-0.9-0.3-1.9-0.5-2.8-0.8
				c-0.4-0.1-0.8-0.3-1.2-0.4c-0.7-0.3-1-0.3-1.8,0.1c-0.6,0.3-0.8,1.2-0.5,1.7c0.5,0.9,1.4,1,2.4,1.2c0.9,0.3,1.9,0.5,2.8,0.7
				c1.8,0.5,3.6,0.8,5.4,0.9c3.3,0.3,6.7-0.1,9.6-1.6c0.3-0.2,0.6-0.3,1-0.5c-0.1,0.2-0.3,0.3-0.3,0.5c-0.3,0.5-0.1,1.2,0.4,1.4
				c0.1,0.1,0.3,0.1,0.5,0.2c0,0.1,0.1,0.1,0.1,0.1c0.5,0.8,1.3,1.4,2.2,1.5c1.1,0.3,2.3,0.1,3.4,0.1c1,0,2-0.1,3-0.1
				c0.3,0,0.5,0,0.7,0c1.2-0.1,2.4-0.1,3.6-0.1c1.1,0,1,0.1,2-0.4c0.5-0.2,0.8-0.4,1.1-0.8c0.2-0.1,0.4-0.2,0.6-0.3
				c0.6-0.4,1.1-0.8,1.6-1.4c0.8,0.3,1.9,0,2.1-1c0.3-1.6,2.3-2.3,3.3-3.5c0.8-1,1.4-2.2,1.4-3.4c2-1,3.1-3.5,3.4-5.6
				c0.1-1,0.1-2.1,0.3-3.1c0.1-0.1,0.1-0.2,0.2-0.3c0.5-0.8,0.9-1.6,1.3-2.5c0.5-0.4,1.2-0.6,1.8-0.6c1.6-0.1,1.9-2.3,0.4-2.8
				c0.4-1,0.4-2.3-0.1-3.2c0-0.1,0.1-0.2,0.1-0.3c0.8-0.9,1.4-2.2,1.3-3.5c0.4-0.3,0.8-0.5,1.3-0.6c0.8-0.2,0.8-1.1,0.2-1.6
				c-0.2-0.2-0.4-0.3-0.6-0.6c0.4-1.2,0.3-2.4-0.6-3.4c0.5-0.6,1-1.3,1.5-1.9c0.3-0.4,0.5-1.2,0-1.5
				C486.1,645.6,485.7,645.3,485.4,645z"/>
		</g>
	</g>
	<path class="st7" d="M444.4,674.2c-1-0.4-1.9-1.1-2.7-2c-0.3-0.3-0.3-0.6-0.3-1c0.1-0.3,0.3-0.6,0.5-0.8c0.3-0.2,0.6-0.3,1-0.3
		c0.3,0.1,0.6,0.2,0.8,0.5l0.1,0.1c0.4,0.5,0.9,1,1.5,1.3c0.6,0.3,1.2,0.4,1.9,0.3c1.3-0.1,2.1-0.8,3-1.7c0.1-0.1,0.3-0.3,0.3-0.4
		c0.1-0.1,0.2-0.2,0.3-0.2c0.1-0.1,0.3-0.1,0.4,0c0.1,0.1,0.3,0.1,0.3,0.3c0.1,0.1,0.1,0.3,0.1,0.4c-0.1,1-0.6,1.8-1.3,2.4
		c-0.8,0.8-1.9,1.3-2.8,1.4C446.6,674.8,445.4,674.6,444.4,674.2z M448.2,659.5c1.2,0.7,2.9,2.3,1.7,4.1c-1.5,1.6-3.6-0.2-4.7-1
		c-1-0.6-2.1,1-1.2,1.7c7.5,5.5,10.6-4.6,4.7-5.5C448.1,658.5,447.8,659.3,448.2,659.5z M434.6,653c0.1-1.6,2.5-1.9,2.8-0.4
		c0.2,1.4-0.1,2.7-0.6,3.9c-0.6,1.2-2.1,0.6-2.3-0.5C434.4,654.6,434.6,654,434.6,653z M453.1,652.3c0.3-0.4,0.8-0.7,1.4-0.6
		c1.8,0.5,1.3,3.1,0.6,4.4c-0.3,0.7-1.5,0.8-2,0.3c-0.8-1-1.2-2.9-0.2-3.9C453,652.4,453.1,652.4,453.1,652.3z M436.7,646.1l0.3-0.1
		c0.9-0.1,2-0.3,2.7,0.4c0.3,0.4,0.5,1.1,0,1.4c-0.8,0.6-1.7,0.4-2.6,0.4c-0.8,0.1-1.6,0.2-2.3,0.4c-1.7,0.5-3,1.4-4.4,2.3
		c-0.2,0.1-0.4-0.1-0.3-0.3c0.8-1.6,2.4-2.9,3.9-3.7C434.9,646.6,435.8,646.3,436.7,646.1z M451.4,645.3l0.2,0.1
		c2.4,0.5,5.5,1.5,6.7,3.9c0.1,0.3,0,0.4-0.1,0.5c0,0.1-0.1,0.1-0.2,0.1c-0.1,0-0.1,0-0.1,0c-0.5-0.1-0.9-0.3-1.4-0.5l-0.5-0.2
		c-0.5-0.3-1-0.4-1.6-0.6c-1.2-0.4-2.3-0.6-3.5-0.8c-0.3,0-0.5-0.1-0.7-0.3s-0.3-0.3-0.4-0.6c-0.1-0.3-0.1-0.6,0.1-0.9
		c0.1-0.3,0.3-0.4,0.6-0.5C450.9,645.3,451.1,645.3,451.4,645.3z"/>
	<g>
		<defs>
			<rect id="SVGID_9_" x="595.1" y="674" width="509.9" height="336.4"/>
		</defs>
		<clipPath id="SVGID_10_">
			<use xlink:href="#SVGID_9_"  style="overflow:visible;"/>
		</clipPath>
		<defs>
			<filter id="Adobe_OpacityMaskFilter" filterUnits="userSpaceOnUse" x="336.5" y="673.7" width="768.6" height="463.4">
				<feColorMatrix  type="matrix" values="1 0 0 0 0  0 1 0 0 0  0 0 1 0 0  0 0 0 1 0"/>
			</filter>
		</defs>
		<mask maskUnits="userSpaceOnUse" x="336.5" y="673.7" width="768.6" height="463.4" id="mask0_1_">
			<g transform="matrix(1,0,0,1,0,0)" class="st9">
				
					<image style="overflow:visible;clip-path:url(#SVGID_10_);enable-background:new    ;" width="973" height="587" id="image7_1_" xlink:href="AE7E134E504E4129.jpg" >
				</image>
			</g>
		</mask>
		<g class="st10">
			<g transform="matrix(0.789916,0,0,0.789442,336.537752,673.682478)">
				<g style="enable-background:new    ;">
					
						<image style="overflow:visible;" width="973" height="587" id="image6" xlink:href="AE7E134E504E412F.png"  transform="matrix(0.7899 0 0 0.7894 336.5378 673.6825)">
					</image>
				</g>
			</g>
		</g>
	</g>
</g>
</svg>
