<?xml version="1.0" encoding="utf-8"?>
<!-- Generator: Adobe Illustrator 24.0.0, SVG Export Plug-In . SVG Version: 6.00 Build 0)  -->
<svg version="1.1" id="Layer_1" xmlns="http://www.w3.org/2000/svg" xmlns:xlink="http://www.w3.org/1999/xlink" x="0px" y="0px"
	 viewBox="0 0 1190.2 1683.8" style="enable-background:new 0 0 1190.2 1683.8;" xml:space="preserve">
<style type="text/css">
	.st0{clip-path:url(#SVGID_2_);}
	.st1{fill:none;stroke:#48BB78;stroke-width:3.7495;stroke-linecap:round;stroke-miterlimit:14.9979;}
	.st2{fill-rule:evenodd;clip-rule:evenodd;fill:#FFFFFF;}
	.st3{clip-path:url(#SVGID_4_);}
	.st4{fill-rule:evenodd;clip-rule:evenodd;}
	.st5{clip-path:url(#SVGID_6_);}
	.st6{filter:url(#Adobe_OpacityMaskFilter);}
	.st7{clip-path:url(#SVGID_8_);mask:url(#mask0_1_);}
</style>
<g id="surface1">
	<g>
		<defs>
			<rect id="SVGID_1_" x="114.1" y="1325.2" width="1058" height="12.6"/>
		</defs>
		<clipPath id="SVGID_2_">
			<use xlink:href="#SVGID_1_"  style="overflow:visible;"/>
		</clipPath>
		<g class="st0">
			<path class="st1" d="M116.3,1330.8H1171"/>
		</g>
	</g>
	<path class="st1" d="M0,244.3h1117.2"/>
	<path class="st2" d="M657.7,1306.8c3.1-12.6-11-16.8-19.7-19.6c-6.4-3.6-29.6-16.2-47.7-31.6c-14.8-12.6-24.8-28.8-29-30.4
		c-2.9-1.5-4.4-2.7-4.7-3.9c-2.6-9.7-0.4-18.6,0-24.5c8.4-1.9,15.2-4.4,20.3-7.8c1.5,0.5,3.6,1,4.4-1c4.6-26.9,6.6-53.4,10.2-80.5
		c14.1-102.5,15.7-222.3-8.6-315.9c-0.2-4.7,0.2-8.9,0.7-12.8c3.3-0.3,5.3-3.1,7.8-4.9c4.2-2.9,8.9-5.2,8.8-10.2
		c0.9-0.6,0.9-1,0.4-1.9c3.1-12-11-24.6-15-34.5c7.3-62.7-2.6-121.8,2.9-184.4c6.9-2.6,2.2-18.6,1.8-25.3
		c-3.8-42.6-28.9-84.8-74-98.8c-2.6-0.5-6.4-3.1-8.6-1.3c-4.2-1.5-9.7,1.5-12.8-1.9c-2.7-3.2-3.8-7.4-4.7-11.5
		c0.2,1.1,0.4,2.3,0.7,3.2c-7.9-19.4-9.7-24.6-34.9-25.6c-11.3-0.2-26.1,0.2-32.7,9.7c-2.7,4.4-1.8,9.6-3.5,14.3
		c-3.1,8.6-16.3,4.4-23.4,8.9c-55.9,15.9-101.5,48.2-116.5,99.9c-3.1,6.3-6.6,12.5-9.1,18.9c-0.4,1-1.5,4.2,1.1,5.7l1.3,0.6
		c-16.8,69.1-17.9,127.4,38.3,173.6c4.2,19.8-6.6,46.8-2.4,66.1c-2.4,2.9,0.6,5.3,3.6,5.5c0.4,0.2,1.5,0.6,1.8,0.8
		c-4.7,60.4,15.5,141.7,24.5,173.9c1.3,19.3-6.2,35.1-21.5,45.7c-17,9.2-50.4,50.8-44.2,94.4c-7.3,1.3-14.4,1.9-21.4,4.4
		c-30.3-4.7-30.1,47.1-31.9,65.3c-3.3,30.4-5.3,74.8,27.4,94.2c8.6,5.5,26.1,12,35.1,3.2c2.9-3.1,3.6-6.1,2.6-9.4
		c14.8-18.5,10.8-42.7,12.2-64.4c4.4-0.2,8.8,1.6,13,1c4.2-3.4-11.3-2.4-13-2.6c0.2-3.4,0.6-6.8,0.9-10.2c2.4,0.5,5.5,1.5,7.8,1.6
		c1.5,0.3,2.4-1.5,1.5-2.3c-1.8-1.6-6.6-1.3-9.1-1.5c0.4-2.7,0.9-5.8,1.6-8.6c3.3-0.2,6.6,1.8,9.5,1.3c-2.4-1.3-6.6-1-9.5-1.8
		c1.8-8.7,5.5-17.2,8.9-25.4c8.4,3.1,15.9,3.2,24.1,2.3c3.5,0.5,5.1-0.2,5.7-3.9l-0.2-0.2c6.6-34.8,27.8-67.8,67.2-105.6
		c7.8-7.8,16.6-16.8,22.5-26.9c11.7-21,13.7-44.4,22.8-66.2c8.4-22,20.1-43.1,30.9-64c1.6,10.7,3.6,21.7,6,32.2
		c9.9,37.2,8.8,76.8,1.7,114.2c-10.6,52.3-5.5,104.9-7.9,157.7c0,3.1,0.6,5.8,0,8.9c0,0.3,0,0.5,0.4,0.5h0.6
		c5.1,3.4,12.2,3.9,18.3,5.7c2.6,1.8,1.8,4.5,2,6.8c0.7,9.4,1.5,18.9,0.6,28.7c-4.6,7.9-10.4,6.3-11.5,17.3
		c-1.1,12.6-2.9,26.2,4.2,37.4l-2.6,0.3c-3.8,7.3-1.5,12,7.7,15.1c45.5,15.7,109.4,30.1,156.9,18.1c0.9,0.8,2.2,0,3.1-1.3
		c0.9-1.1,1.6-2.6,1.5-3.6C661.6,1314.5,662.7,1307.6,657.7,1306.8z"/>
	<g>
		<defs>
			<rect id="SVGID_3_" x="214.5" y="390.1" width="450.2" height="939.1"/>
		</defs>
		<clipPath id="SVGID_4_">
			<use xlink:href="#SVGID_3_"  style="overflow:visible;"/>
		</clipPath>
		<g class="st3">
			<path class="st4" d="M659.7,1319.4c-40.9,16.2-115.1-4.2-155.2-16c-10.8-3.4-14.4-4.2-11.3-15.2c5.7,9.7,17.9,12,29.6,13.9
				c39.6,7.9,80,22.7,122.4,15.5c6.2-0.8,12.4-3.9,14.2-9.4c1.1,2.3,0.4,5.5,0.9,8.1C660.1,1317.5,660.1,1318.6,659.7,1319.4
				 M494.5,1259.2c0.7-6.5,1.8-13.4,6-19.1c-0.4,9.2,5.8,25.1,19.7,19.9c3.8-1.8,6-5.5,8.6-8.6c8.4-9.7,19.2-18.3,31.2-24.4
				c6.8,1,9.7,12,14.1,16.5c-4.9,2-13.7,6.3-14.6,10.8c6-1.8,11.7-5.2,17.9-6.3c2,2.4,4.2,4.9,6.4,7.3c-2.9,1.1-15,6.5-14.8,9.2
				c6.4-1,12.8-3.7,19.2-4.9c2.9,2.6,5.5,5.2,8.4,7.8c-4.4,1.6-8.9,3.4-11.3,7c-0.2,0.2,0.2,0.3,0.4,0.2c3.3-3.4,8.8-4.1,13.7-4.9
				c7.5,6.1,15.7,11.7,25,15.7c9.3,4.5,23.6,5.5,27.2,15.4c2.9,9.7-6.2,10.8-14.8,11.5c-8.6,1.1-17.3,1.3-25.9,0.6
				c-26.8-1-52.2-7.9-77.4-14.1C502.5,1293.5,492.5,1289.4,494.5,1259.2 M505.4,1202.2c16.4,1.9,33.2,0.8,49.3-2.7
				c-1.1,4-1.8,8.2-2.4,12.3c-0.2,1.3-0.5,3.1-0.5,4.7c0.2,2.4,0,5.3,1.6,7.3c-11.9,7.8-23.4,16.4-31.8,27.2
				c-5.5,8.7-12.8,3.4-14.6-3.6c-1.1-12.5-0.6-24.5-1.3-36.4C506,1208,505.8,1205.1,505.4,1202.2 M503.6,1201.9
				c0,0.5-0.2,0.8-0.2,1.3c0-0.5-0.2-1-0.2-1.3C503.2,1201.9,503.4,1201.9,503.6,1201.9 M495.4,1195.5c-2.7-0.8-5.5-1.5-8.2-2.3
				c-0.7-0.2-1.8-0.3-2.2-0.8c10-18.6,4.2-40.3,4.7-60.2c-3.5-54.4,10.6-107.8,12.6-161.9c-0.2-30.6-12.2-59.9-18.3-89.9
				c6.2-11.8,12.1-23.8,17.7-35.8c0.2-0.3-0.5-0.6-0.7-0.3c-6.6,9.1-13.3,18.1-19.5,27.4c-30,39.4-43.3,84.4-57.5,129.2
				c-4.6,10.2-11.9,19.3-20.1,27.5c-34,32.4-65.6,69.5-73.6,113.3c-31.4-1-40.5-18-51.7-39.7v-0.2c-0.4-0.6-0.7-1.3-0.9-1.9
				c-0.2,0-0.2,0.2-0.4,0.2c-7.3-12.5,3.1-38.4,8.6-51.3c7.3-14.4,17.2-27.8,30.1-39c9.5-7.4,19.4-15.7,23.6-26.4
				c6.8-16.8,0.7-35.6-3.1-52.5c-9.3-41.9-18.3-106.2-16.8-149c11.9-12.5,32.5-11.2,49.1-14.1c4.7,4,8.9,8.7,15,11.3
				c6.9,5.8,13.9,11.8,19,18.9c5.7,9.7,13,18.1,23.2,24.6c5.1,3.6,12.6,8.9,19.7,6.6c5.1-1.5,8-6,13-7.6c6-1.1,9.7-1.5,13.3-6.3
				c4.4-0.8,8.4-2.6,7.1-7c1.1,0.3,2.2,0.6,3.3,1c2.2,0.6,4.7-1.5,4-3.4c-1.8-3.9-4-7.6-4.7-11.8c-0.7-18.6-6.2-23.8-25.6-31.2
				c7.7-0.3,15.3,1.3,22.6,3.2c36.7,11.8,60.6,19.1,99,4.2c18.6,136.8,18.3,276.4-4.6,412.9C551.6,1197.8,521.3,1197.5,495.4,1195.5
				 M275.3,1116.7c0-0.5,0.2-1.1,0.2-1.6c4.6,11,12.4,21.5,24.1,27.9c-4.6,5-13.1,6.5-19.2,2.4
				C270.4,1138.4,274.6,1126.1,275.3,1116.7 M294.9,1168.2c-4.6-0.3-24.1-1-26.5,1.8c2.6,1,6.2,0.5,9.1,0.5c5.5,0.2,11,0.6,16.4,1.3
				c-0.4,1.9-0.7,3.7-1.1,5.7c-5.5,0.5-16.3,0.6-19.7,4c6.2,0.8,12.8,0.2,19,1.1c-0.4,2.6-0.5,5.2-0.7,7.8
				c-2.6,0.2-17.2,2.4-17.2,4.4c5.5,0.6,11.3-0.2,16.8,0.3c-1.3,15.5,2.9,62.2-21,65.1c-20.8-1-30.1-30.9-32.9-45.3
				c-6.2-33.5-5.3-69.3,7.3-101.5c4.4-8.9,16.6-10.5,26.8-11c0.4,1.5,0.7,3.1,1.3,4.5c-4.4,8.9-5.8,18.9-6,28.7
				c0.9,13.9,20.3,24.3,34.3,15.1C298.3,1156.2,296.3,1162.2,294.9,1168.2 M267.1,1267.9c-41.4-7.9-48.2-50.4-45.3-81.4
				c2.4-21.7-0.6-67.5,22.1-80.3c-29.2,23.6-26.7,184.6,38.2,156.6C280.6,1267.3,272.2,1268.6,267.1,1267.9 M313.9,787.4
				c0.2,0,0.6-0.2,0.7-0.3c0,5.3,0,10.7,0.2,16C314.4,797.9,314.2,792.6,313.9,787.4 M310.4,705.8c-55.1-48.7-44.6-104-31.9-164.8
				c20.4,2.1,41.1,6.5,59.5,14.6c-6.6,26.9-6.9,51.2-9.7,78.5c-0.9,3.4,0.2,9.9,5.5,8.4c49.7,34.8,55.3,106.4,120.5,127.1
				c26.5,9.6,15.3,17.3,24.1,35.3c-4.7-0.8-9.1-4.4-11.1-7.8c-1.1-1.6-4-0.2-3.1,1.5c2.2,3.7,5.8,6.6,10,8.4c-0.6,1-0.7,1.9-0.7,2.9
				c-7.7,1.5-5.5,4.7-10.8,6.1c-3.5,0.8-6.8,1.1-9.7,3.1c-10,8.3-12.6,7.6-23.4,0.3c0.2-0.6-14.6-13.4-19.2-20.4
				c-3.8-6-7.9-11.8-13.5-16.5C368.5,756.6,338,732.3,310.4,705.8 M582,543.7c-2.7,34.5-2,65.3-1.5,99.7c0.4,23.1,0.6,46.5-0.4,69.6
				c-23-52.8-16.1-110.1-19.4-165.6C567.5,545.5,574.8,544.7,582,543.7 M416.5,411.4c0,0.2-0.2,0.3-0.2,0.3c-0.5,0-1.1,0-1.6,0.2
				C415,411.7,415.8,411.6,416.5,411.4 M495,415.5v-0.2C495,415.3,495.2,415.3,495,415.5C495.2,415.3,495.2,415.3,495,415.5
				 M663.8,1312.8c-0.2-2.7-0.2-6.3-3.8-7.3c1.6-11.8-9.5-18.6-21.2-21.9c-9.9-5.3-21.2-9.1-30.3-15.7c4.2-0.6,8.4-1.6,12.2-3.2
				c2.9-1.3,1.5-5.3-1.7-5c-5.5,0.6-10.4,3.1-15.5,4.9c-2.9-2.1-5.7-4.4-8.4-6.6c3.3-0.6,7.5-0.3,9.5-3.2c0.6-1,0.4-1.8-0.4-2.6
				c-3.3-3.1-10,0-14.2,0.8c-2-2.1-4-4.2-5.8-6.3c3.1-0.3,11.3,0.3,9.7-4.4c-3.1-3.6-9.7-1.5-14.2-0.6c-5.7-6.1-7.5-15.5-16.3-18.9
				c-0.4-1.5-2.5-1.5-4-1c-0.9-3.9-1.5-7-1.6-10h-0.2c-0.2-4.4,0.2-8.7,0.4-13.1c6.6-1.6,13.1-3.7,18.4-7.1c2.6,0.6,5.5-0.2,6-2.7
				c4.6-26.7,6.6-53.8,10.2-80.5c13.5-98.6,16.4-219.1-8.6-316.4c-0.2-3.7,0.2-7.4,0.6-11c2.9-0.6,4.7-3.2,7.1-4.7
				c4.6-3.2,9.1-5.2,9.7-10.8c0.9-0.8,1.1-1.9,0.6-2.9c1.1-5.8-0.6-11.8-4.2-16.8c-3.8-5.8-7.5-11.7-10.8-17.8
				c7.1-61.5-2.6-121.1,2.7-183c6.8-3.2,2.6-20.7,1.8-26.6c-4-38.5-24.3-80.9-67.4-97c-3.1-2.3-7.3-3.1-11-4.2
				c-2.6-1.1-6.6-2.1-8.2,0.5c-1.8-0.8-7.7-1.3-9.7-2.6c-0.4-0.2-0.6-0.5-0.7-0.8c-0.2,0-0.4,0-0.5,0c-1.8-2.3-3.7-18.4-5.9-17.3
				c-2.6,5.5-0.7,11.8,1.7,17.3c1.6,4.9,3.8,17.7,12.6,14.4c1.5-0.6,0.6-2.4-0.7-2.6c-4.2-1-5.1-6.5-6.6-9.6
				c1.8,1.5,10.6,3.4,11.5,3.9c18.6,37.9-94.2,35.9-103.2,9.7c-6.4-9.1-0.9-13.9,10.4-15.4c-8.2,8.1,2.2,10,6.2,1.9
				c3.8-5.7,5.5-12.6,4.2-19.3c0.7-2.3,1.3-5.3-2.7-4.9c-0.2-0.3-0.4,0-0.2,0.2c-1.5,1.9-0.4,4.9-0.9,7.3c-0.4,3.7-1.6,7.4-3.7,10.8
				c-3.8,0.6-7.7,1.3-11.5,2.1c-2.2-4-17.2,4.1-21,5c-52.6,13.8-92.8,50.5-106.6,96.8c-3.1,6.1-6.6,12.3-9.1,18.8
				c-1.1,2.8-1.1,6.1,2,7.9c-15.3,62.2-19,126.9,38.9,173.6c1.3,5,0.4,10.4,0.4,15.5c0.6,11.7-10.8,51.8,2.4,57
				c-3.8,52,10.6,122.7,24.5,172.9c1.1,17.2-4.9,32.9-20.6,43.9c-30.1,19.9-42.7,53.1-46.2,84.7c-0.6,3.2,0,6.5,0.7,9.7
				c-6.6,1.1-12.6,1.8-19,3.9c-34.9-6-32.3,60.4-35.1,80.1c-2,29.1-0.7,64,29.4,83.1c10.2,6.5,28.1,12.6,38,2.9
				c2.7-2.9,4.4-6.5,3.3-10.2c14.2-18.5,10.8-41.9,11.9-62.8c3.7,0.2,7.9,1.6,11.5,0.8c2.7-0.6,3.1-3.9,0.7-5.2
				c-3.5-1.8-8-1.1-12.1-1.1c0.2-1.9,0.4-4.1,0.6-6c3.6,0.8,8.9,2.8,10-1.8c0.4-4.1-5.5-4.4-9.1-4.5c0.2-1.6,0.5-3.1,0.9-4.7
				c2.7,0.3,5.9,1.8,8.6,1.1c1.6-0.5,2.2-1.9,0.9-3.1c-2.2-1.8-5.7-1.5-8.6-2.1c1.6-7.4,4.7-14.4,7.7-21.5c5.3,1.6,11.1,2.7,17,2.3
				c2.9-0.5,6.2-0.6,9.1-0.3c3.3-0.8,4.2-3.9,4.6-6.5c0-0.2-0.2-0.2-0.2-0.3c7.7-39.8,35.4-74.2,66.5-103.6
				c8.6-8.4,17-17.3,22.8-27.4c11.9-21,13.9-44.7,23-66.6c7.7-19.8,17.7-38.9,27.8-57.8c4,25.1,11.5,49.7,12.2,75.1
				c1.3,32.2-6.8,63.8-10,95.9c-6.2,41.9-0.6,84.2-3.5,126.3c0,2.9,0.4,5.8,0,8.7c-0.2,1.6,1.1,2.8,2.6,2.8
				c5.1,3.1,11.7,4.1,17.5,5.3c1.6,1.1,0.9,3.9,1.3,5.5c0.2,1.6,0.2,3.4,0.4,5c0.6,7.1,0.9,13.3,0,21c-5.8,7.6-10,6.3-11.7,18
				c-0.9,12-2.9,25.1,3.1,35.9c-2.7,0.5-3.6,7.8-3.3,9.6c0.7,5.3,6,7.1,11.1,8.9c37.8,12.5,118,33.2,156.9,18.9
				c2.7,1.5,5.8-1.3,6.8-3.6C665,1317.9,663.9,1315.4,663.8,1312.8"/>
		</g>
	</g>
	<path class="st2" d="M536.8,327.2c-2.9-32.1-12.1-60.5-54.6-61.7c-19.2,0.2-38.9,3.7-56.4,10.5c-43.1,18.9-56.6,88.6-18.8,116.7
		c-0.2,0.2-0.4,0.5,0,0.6c7.9,4.7,16.4,8.4,25.2,11.7c23.2,8.7,50.4,12.5,74.1,3.1C542.3,394.4,542.8,356.7,536.8,327.2z"/>
	<g>
		<defs>
			<rect id="SVGID_5_" x="293.5" y="175.4" width="321.6" height="249.8"/>
		</defs>
		<clipPath id="SVGID_6_">
			<use xlink:href="#SVGID_5_"  style="overflow:visible;"/>
		</clipPath>
		<g class="st5">
			<path class="st4" d="M607.8,312.3c1.5-1.1,2.6-2.8,3.1-4.5c0.6-1.6,0.6-3.2,0-4.9c-0.5-1.6-1.8-3.1-1.6-4.9c0-0.2,0-0.3,0.2-0.5
				c1.1-3.4,3.8-5.7,2.7-9.4c-0.2-1-0.7-1.9-1.5-2.8c0-0.8,0.2-1.6,0.2-2.4c1.7-3.2,1.5-7.1-0.2-10.4c-0.2-1.6-0.6-3.2-0.9-4.9
				c0.2-1.5,0-2.9-0.6-4.2c-0.9-2.1-2-4.4-3.3-6.5c0.2-0.6,0-1.1-0.4-1.8c-0.7-1-1.5-1.8-2.4-2.7c-0.5-1-1.3-2-1.8-2.9
				c-0.4-0.5-0.6-1-0.9-1.5c0.9-1.6,1.5-3.1,0.4-5c-0.4-0.6-1.5-1.1-2.2-1.1c-0.9,0-1.8,0.2-2.9,0.2c-1.8-1.9-3.8-3.6-6-4.5
				c-2.2-1.6-4.4-3.2-6.6-4.9c-0.6-0.5-1.3-1-1.8-1.5c-0.4-1.5-0.9-2.9-1.5-4.4c-0.4-1-0.4-1.8-1.5-2.3c-2-1-5.3-1.1-7.5-1.3
				c-0.2-0.2-0.5-0.3-0.7-0.5c1.1-2.6,0.9-5.2-0.6-7.8c-0.5-0.8-2-1.3-2.9-0.6c-2,1.3-4.4,1.8-6.8,1.6c-3.5-2.4-17.5-13.1-19.7-14.2
				v-0.2c-1.3-1.8-2.7-3.1-4.4-4.2c-0.2-0.2-0.6-0.5-0.7-0.6c0.2-1.3,0.7-2.6,1.6-3.7c0.2-0.2,0.2-0.2,0.4-0.3
				c1.6-1.6-0.4-3.7-2.6-2.9c-0.2,0-0.4,0.2-0.6,0.2c-1.6,0.6-3.5,1.3-5.5,1.9c-0.7-0.2-1.5-0.5-2-0.6l-6.9-2.4
				c-1.1-0.5-2.4-0.8-3.5-1.3c-0.4-2.3-2.9-3.7-5.7-3.7c0.2-0.5,0.4-0.8,0.7-1.3c0.2-0.2,0.2-0.2,0.4-0.3c1.5-1.5-0.6-4.1-2.4-2.8
				c-0.2,0.2-0.4,0.2-0.4,0.3c-0.5,0.3-1.1,0.6-1.6,1c-0.9-0.3-2-0.5-2.9,0c-2.4,0.8-4.6,1.6-6.6,2.9l-0.2,0.2
				c-1.1-1.1-2.7-1.8-4.2-1.8c-1.1-1.5-3.1-2.4-5.1-2.1c0.2-2.1-2.4-4-4.6-4.4c-2.6-0.3-4.9,1.1-5.7,3.2c-0.2,0.6-0.4,1.3-0.7,1.9
				c-2-1-4.2-1.6-6.4-1.9c-5.1-0.8-10.1,0-14.8,1.3c-0.6,0.2-0.9,0.3-1.5,0.3c-0.7-0.6-1.3-1.5-2-2.1c-1.1-1.1-3.7-0.2-3.5,1.3
				c0.2,1-0.4,1.8-1.1,2.3c-0.9,0.2-1.7,0.2-2.9,0.2c-1.6,0-2.4,0-4-0.6c-0.7-0.3-1.8-1-2.2-1.6c-1.8-2.4-6.2-3.1-8.4-0.8
				c-2.2-0.8-5.1,0.3-6.4,2.1c-0.7,0.8-2,1.5-3.7,1.8c-1.3,0.3-2.6,0.5-4,0.8c-0.6-0.6-1.8-1.1-2.7-0.6c-0.5,0.3-1.3,0.8-1.8,1.3
				c-4.6,0.5-9.1,0.6-13.5-1c-3.6-1.3-7.1,2.3-6.4,5.3c-1.1,0.5-2.2,0.8-3.3,1.3c-2.4,1.1-4.2,2.9-5.3,5c-0.2,0.3-0.4,0.8-0.6,1.1
				c-0.9,0.6-1.6,1.3-2.6,1.9c-1.5-0.6-2.7-1.3-4.2-1.9c-1.1-0.5-2.7-0.2-2.9,1.1c-0.4,1.9-1.3,3.7-2.4,5c-3.8,1.8-7.3,3.7-10.8,5.8
				c-4,1.1-8.2,1.8-11.7,2.6c-1.3,0.2-2,1.6-1.3,2.4c0.7,1,1.5,1.9,2.2,2.9c-2,1.8-3.8,3.6-5.7,5.3c-4.9,5.2-8.9,10.8-12.6,16.7
				c-1.5,0.5-2.9,1-4.4,1.6c-1.5,0.5-2,2-0.9,2.9c0.6,0.5,1.1,1,1.5,1.6c-2,3.1-4.4,5.7-7.9,7.6c-1.1,0.5-1.8,1.5-2.2,2.4
				c-0.4,0.2-0.7,0.5-1.1,0.6c-0.9,0.6-1.5,2.1-0.4,2.9c0.7,0.6,1.5,1.3,2.2,2.1c0.2,0.5,0.2,0.8,0.4,1.3c-3.1,2.6-5.7,5.5-7.7,8.9
				c-0.6,0-0.9,0-1.3,0.2c-3.5,2.3-3.6,6-2.2,9.2c-0.9,4.9-0.4,9.9,1.3,14.7c-2.2,1.9-3.5,4.7-4,7.3c-0.9,4.7-0.9,11.8-1.3,16.5
				c-2.4,1.9-4,4.5-4.9,7.4c-0.7,0.3-1.6,0.6-2.4,1c-0.7,0.3-1.3,1.1-1.1,1.8c0.2,3.2,1.8,6,3.8,8.3c0.7,1.8,1.8,3.6,3.3,5.2
				c0.9,1.1,2,2.1,2.7,3.4c0,0.2,0.2,0.2,0.2,0.3c-0.4,0.3-0.6,0.8-0.9,1.1c-2,3.1-2,6.8,0.7,9.6c-1.1,0.8-1.1,2.3-0.2,3.2
				c6.2,6.1,11.3,13.8,19.9,17.2c0,0,0,0.2,0.2,0.2c-1.6,3.7-2,5.7-0.5,9.4c0,0,0,0,0,0.2c0.7,1.9,2.2,5.2,4.6,5.8
				c0.7,0.2,1.6,0.3,2.4,0.3c2,1.6,4,3.4,6,5c0.2,0.8,0.4,1.6,0.4,2.6c0,1.5,1.6,2.6,3.3,2.1c0.6-0.2,3.8-2.9,4.4-2.9
				c0.4,0.3,0.6,0.5,0.9,0.8c1.1,1,2.6,2.6,2.6,3.6c0.2,1.9,1.6,4.2,4,4.5c0.9,0.8,2.2,1,3.3,0l0.2-0.2c0.2,0,0.2,0,0.4,0
				c0.5,1.3,1.1,2.8,1.5,4.1c1.1,2.6,4.9,4.4,7.7,2.8c0.4,0.2,0.9,0.5,1.3,0.8c0.7,0.3,1.3,0.8,2,1.1c0,0.2,0,0.2,0.2,0.3
				c0.4,1.1,2.2,1.8,3.5,1.1c0.4,0.2,0.7,0.2,1.1,0.3c1.8,0.3,3.8,0.2,5.7-0.3c1.3-0.3,2.6-1.1,4-1.3h0.2c1.1,2.1,3.8,3.9,5.8,4.5
				c2.7,0.8,5.5,0.5,8-0.5c0.7,1.1,1.5,2.3,2.6,3.4c0.6,0.6,1.6,0.5,2.2,0c1.1-0.8,2.2-1.8,3.3-2.6c0.7-0.3,1.7-0.6,2.4-0.8
				c2.6-1,5.5-1.3,7.8-2.8c1.1-0.6,2.2-1.5,3.1-2.4c1.6-0.8,3.1-2,4.6-3.1c0.7,0,1.5-0.2,2-0.5c2.9-1.3,4.4-3.9,4.6-6.6
				c2.4-4.9,3.6-10,4.2-15.4c0.2-1.8,0.2-3.6,0-5.3c-0.2-1.3-0.4-2.1-0.9-3.2c-0.2-0.3-0.4-0.6-0.6-1.1c0-1.1,0-2.4,0-3.6
				c0.4-1,0.9-1.9,1.8-2.8c1.5-1.1,2-3.7,0.7-5.2c-0.7-1-1.6-1.9-2.4-2.9c0.2-4.2,1.3-10.7-1.1-11.3c0.2-0.6,0.4-1.3,0.4-1.8
				c0.5-2.9,0.2-5.5-1.5-8.1c-0.4-0.5-0.7-1-0.9-1.5c-0.2-0.8-0.4-1.6-0.5-2.6c-0.2-1.3-0.6-2.6-0.7-3.9c-0.2-1.6-0.2-3.4-0.4-5
				c-0.2-1.6-0.2-3.1-0.4-4.7c0-0.6,0.2-1.5,0.2-2.1c0.5-4.2,2.6-5.7,5.8-8.6c0.6,0,1.1-0.2,1.5-0.3c2.4-0.5,4.7-1.1,7.3-0.8
				s4.9,1.3,7.5,0c0.7-0.3,2.4-1.5,2.6-2.3V313c0.2,0,0.4,0,0.5,0c2,0,4,0.6,6,0.5c2.4-0.2,4.6-1.1,6-2.6c1.8,0.3,3.6,0.6,5.7,0.3
				c1.6-0.2,3.1-0.6,4.4-1.3c1.1-0.5,0.7-0.6,1.8-0.2c2.6,1,4.9,2.1,7.7,1.5c1.5-0.3,2.7-1,3.8-1.9c0.2-0.2,0.7-0.5,0.9-0.8
				c1.3,0.6,4.7,2,5.3,2.1c1.7,0.3,3.3,0.3,4.9-0.2c1.1-0.3,2.6-1.3,3.5-1.5c1.3-0.3,4.2,1.3,5.7,1.9c2.7,1,5.7,1.1,8.4,0.2
				c0.9-0.3,2.7-1.8,3.5-1.6c1.1,1.3,4.4,8.1,5.3,10.7c3.8,10.2,4.9,41.8,3.1,49.9c0,0.2-0.2,0.5-0.2,0.6c-2.2,7-4.6,14.1-8.2,20.7
				c-3.5,6.1-8.4,11.7-15.2,15.1c-7.1,3.6-15.5,4.4-23.7,3.9c-5.1-0.3-10.2-1.3-15.3-2.4c-2.6-0.6-5.3-1.3-7.9-1.9
				c-1.1-0.3-2.2-0.6-3.5-1c-2-0.6-2.9-0.6-4.9,0.2c-1.6,0.8-2.2,2.9-1.3,4.2c1.5,2.3,4,2.4,6.8,3.1c2.6,0.6,5.3,1.3,7.9,1.8
				c5.1,1.1,10.2,2,15.3,2.3c9.3,0.6,18.8-0.3,27.2-3.9c0.9-0.5,1.8-0.8,2.7-1.3c-0.4,0.5-0.7,0.8-0.9,1.3c-0.9,1.1-0.2,3.1,1.1,3.6
				c0.4,0.2,0.9,0.3,1.3,0.5c0,0.2,0.2,0.2,0.2,0.3c1.3,2.1,3.7,3.4,6.2,3.9c3.1,0.6,6.4,0.2,9.5,0.2c2.9,0,5.7-0.2,8.6-0.2
				c0.7,0,1.3,0,2,0c3.5-0.2,6.8-0.2,10.2-0.3c3.1,0,2.9,0.2,5.7-1c1.3-0.5,2.4-1.1,3.1-2.1c0.6-0.2,1.1-0.5,1.6-0.8
				c1.6-1,3.1-2.1,4.4-3.4c2.2,0.6,5.5,0,5.8-2.4c0.7-4.1,6.6-5.8,9.3-8.7c2.2-2.4,3.8-5.5,3.8-8.4c5.7-2.4,8.8-8.7,9.5-14.1
				c0.4-2.4,0.4-5.2,0.7-7.8c0.2-0.2,0.4-0.5,0.6-0.6c1.5-1.9,2.6-4.1,3.6-6.3c1.5-1,3.3-1.5,5.1-1.6c4.6-0.2,5.5-5.7,1.1-7
				c1.1-2.6,1.1-5.7-0.4-8.1c0-0.3,0.2-0.5,0.2-0.8c2.4-2.3,3.8-5.5,3.6-8.7c1.1-0.6,2.4-1.3,3.7-1.6c2.2-0.5,2.2-2.8,0.6-3.9
				c-0.6-0.5-1.1-0.8-1.7-1.5c1.1-2.9,0.7-6.1-1.6-8.6c1.5-1.6,2.7-3.2,4.2-4.7c0.9-1,1.5-2.9,0-3.9
				C609.7,313.6,608.8,313,607.8,312.3z"/>
		</g>
	</g>
	<path class="st4" d="M492.2,385.6c-2.9-1-5.5-2.8-7.5-5c-0.7-0.8-0.9-1.6-0.7-2.4c0.2-0.8,0.7-1.6,1.5-2.1c0.7-0.5,1.8-0.8,2.7-0.6
		c0.7,0.2,1.6,0.5,2.2,1.3l0.2,0.2c1.1,1.3,2.6,2.4,4.2,3.2c1.6,0.6,3.5,1,5.3,0.8c3.6-0.3,6-2.1,8.6-4.4c0.4-0.3,0.7-0.6,0.9-1
		c0.2-0.3,0.6-0.5,0.7-0.5c0.4-0.2,0.7-0.2,1.1,0c0.4,0.2,0.7,0.3,0.9,0.6c0.2,0.3,0.4,0.6,0.4,1c-0.2,2.4-1.6,4.5-3.6,6.1
		c-2.2,1.9-5.3,3.2-8,3.6C498.2,386.9,495.1,386.6,492.2,385.6z M502.8,348.6c3.3,1.8,8.2,5.8,4.7,10.2c-4.2,3.9-10-0.5-13.1-2.6
		c-2.7-1.6-5.8,2.4-3.3,4.2c21.2,13.9,29.9-11.5,13.1-13.9C502.6,346.1,501.9,348.1,502.8,348.6z M464.6,332.4
		c0.4-4.1,7.1-4.9,7.9-1c0.5,3.6-0.2,6.8-1.8,9.9c-1.6,3.1-6,1.6-6.4-1.1C463.9,336.4,464.4,334.8,464.6,332.4z M516.7,330.6
		c0.9-1.1,2.4-1.8,4-1.5c5.1,1.3,3.7,7.8,1.8,11c-0.9,1.8-4.2,2.1-5.7,0.6c-2.4-2.4-3.5-7.3-0.6-9.7
		C516.5,330.9,516.7,330.8,516.7,330.6z M470.4,314.9l0.7-0.2c2.6-0.3,5.7-0.8,7.5,1c0.9,1,1.3,2.7,0,3.6c-2.2,1.6-4.7,1-7.3,1.1
		c-2.2,0.2-4.4,0.5-6.4,1c-4.7,1.1-8.4,3.4-12.4,5.7c-0.5,0.3-1.1-0.3-0.7-0.6c2.4-4.1,6.8-7.3,11.1-9.2
		C465.3,316.2,467.9,315.4,470.4,314.9z M511.9,313.1l0.5,0.2c6.8,1.3,15.5,3.7,18.8,9.7c0.2,0.8,0,1-0.2,1.1c0,0.2-0.2,0.2-0.6,0.3
		c-0.2,0-0.2,0-0.4,0c-1.5-0.3-2.6-0.8-3.8-1.3l-1.3-0.5c-1.5-0.6-2.9-1.1-4.4-1.6c-3.3-1-6.6-1.6-9.9-1.9c-0.7,0-1.5-0.3-2-0.6
		c-0.6-0.3-0.9-0.8-1.1-1.5c-0.2-0.8-0.2-1.5,0.4-2.3c0.4-0.6,0.9-1,1.6-1.1C510.4,313.1,511.2,313.1,511.9,313.1z"/>
	<g>
		<defs>
			<rect id="SVGID_7_" x="917.4" y="385" width="1438.5" height="844.6"/>
		</defs>
		<clipPath id="SVGID_8_">
			<use xlink:href="#SVGID_7_"  style="overflow:visible;"/>
		</clipPath>
		<defs>
			<filter id="Adobe_OpacityMaskFilter" filterUnits="userSpaceOnUse" x="187.8" y="384.3" width="2168.4" height="1163.6">
				<feColorMatrix  type="matrix" values="1 0 0 0 0  0 1 0 0 0  0 0 1 0 0  0 0 0 1 0"/>
			</filter>
		</defs>
		<mask maskUnits="userSpaceOnUse" x="187.8" y="384.3" width="2168.4" height="1163.6" id="mask0_1_">
			<g transform="matrix(1,0,0,1,0,0)" class="st6">
				<g transform="matrix(1 0 0 1 0 -1.220703e-04)" style="clip-path:url(#SVGID_8_);enable-background:new    ;">
					
						<image style="overflow:visible;" width="973" height="587" id="image7_1_" xlink:href="D3C1E062048D809C.jpg"  transform="matrix(2.8213 0 0 2.511 -761.6565 -1307.345)">
					</image>
				</g>
			</g>
		</mask>
		<g class="st7">
			<g transform="matrix(0.789916,0,0,0.789442,336.537752,673.682478)">
				<g transform="matrix(1 0 0 1 1.525879e-05 0)" style="enable-background:new    ;">
					
						<image style="overflow:visible;" width="973" height="587" id="image6" xlink:href="D3C1E062048D809D.jpg"  transform="matrix(2.2286 0 0 1.9823 187.8224 384.2526)">
					</image>
				</g>
			</g>
		</g>
	</g>
</g>
</svg>
